<svg xmlns="http://www.w3.org/2000/svg" viewBox="0 0 133.97 223.16"><defs><style>.cls-1{fill:#ffbd00;}</style></defs><title>Icon fill</title><g id="Layer_2" data-name="Layer 2"><g id="Layer_1-2" data-name="Layer 1"><path d="M109.59,73.11H96a42.2,42.2,0,0,0-58.58,0h-13a24.38,24.38,0,1,0,0,48.75h5c1.59,3.85,3.59,8.09,6,12.67,1.73,3.35,3.73,7,5.94,10.84l.4.71c2.48,4.3,5.2,8.79,8.32,13.73,2,3.11,4,6.29,6.13,9.46a12.63,12.63,0,0,0,21.07,0c2.11-3.18,4.17-6.36,6.13-9.46,3-4.79,5.82-9.42,8.34-13.77,2.32-4,4.44-7.89,6.32-11.51,2.37-4.58,4.36-8.82,6-12.67h5.61a24.38,24.38,0,1,0,0-48.75ZM24.38,118.86a21.38,21.38,0,1,1,0-42.75H34.6a42.21,42.21,0,0,0-9.94,26.25c0,.33,0,.66,0,1,0,3.93,1.09,8.78,3.33,14.84.08.22.17.45.26.68ZM36.19,74.34l-.35.37Zm61.1.08.23.24Zm12.3,44.44h-4.42l-.1.27.36-.95c2.24-6.06,3.32-10.91,3.32-14.84,0-.32,0-.65,0-1A42.28,42.28,0,0,0,98.8,76.11h10.79a21.38,21.38,0,1,1,0,42.75Zm-5.34,2.35c.14-.36.29-.72.43-1.07C104.54,120.49,104.39,120.85,104.25,121.21Z"/><path class="cls-1" d="M105.74,102.37l-.38.16c-10.41,4.12-24.14,6.39-38.66,6.39S38.45,106.65,28,102.53l-.38-.16a38.9,38.9,0,0,1,1.75-10.63c.77.36,1.6.72,2.49,1.07,9.21,3.64,21.57,5.65,34.8,5.65s25.59-2,34.81-5.65c.88-.35,1.71-.71,2.49-1.07A38.89,38.89,0,0,1,105.74,102.37Z"/><path class="cls-1" d="M102.62,117.14a145.64,145.64,0,0,1-7.26,16,92.46,92.46,0,0,1-28.66,4.19A92.5,92.5,0,0,1,38,133.15a147.37,147.37,0,0,1-7.25-16c1,1.43,3.59,3.45,8.49,5.34,7.23,2.8,17.22,4.4,27.42,4.4s20.2-1.6,27.42-4.4C99,120.59,101.61,118.57,102.62,117.14Z"/><path class="cls-1" d="M89.11,144.54c-2.76,4.77-5.59,9.42-8.28,13.67a79.24,79.24,0,0,1-28.26,0c-2.67-4.25-5.51-8.87-8.25-13.63C48.06,146.65,55.57,149,66.7,149S85.36,146.64,89.11,144.54Z"/><ellipse cx="66.7" cy="215.61" rx="40.41" ry="7.55"/><path class="cls-1" d="M22.94,58.76c0,32.49,87.2,32.49,87.2,0,0-16.2-21.7-39.28-43.45-39.32S22.94,42.48,22.94,58.76Z"/><path d="M97.61,32c-7.8-7.47-17-12.26-25.88-13.61C72.16,14.58,74.19,3,82.68,3a1.5,1.5,0,0,0,0-3c-5.44,0-9.61,3.44-12.05,9.94A34.42,34.42,0,0,0,68.75,18c-.69,0-1.37-.07-2-.07h-.06q-1.15,0-2.31.09a34.65,34.65,0,0,0-1.88-8.09C60,3.44,55.84,0,50.39,0a1.5,1.5,0,0,0,0,3c8.51,0,10.53,11.63,11,15.37-9.28,1.44-18.8,6.55-26.79,14.53-8.22,8.2-13.12,17.87-13.12,25.86,0,8.14,5,14.92,14.46,19.62,8.11,4,19,6.25,30.64,6.25s22.53-2.22,30.64-6.25c9.46-4.7,14.46-11.48,14.46-19.62S106.26,40.25,97.61,32ZM66.54,81.63c-20.92,0-42.1-7.86-42.1-22.87,0-7.11,4.69-16.2,12.24-23.74,8.83-8.82,20-14.08,30-14.08h0c20.81,0,42,22,42,37.82C108.64,73.77,87.46,81.63,66.54,81.63Z"/><circle cx="41.68" cy="51.73" r="2.69"/><circle cx="89.6" cy="51.73" r="2.69"/><path d="M65.64,62.6a6.38,6.38,0,0,1-6.38-6.38,1,1,0,0,1,2,0,4.38,4.38,0,0,0,8.76,0,1,1,0,0,1,2,0A6.38,6.38,0,0,1,65.64,62.6Z"/></g></g></svg>